<mxfile host="app.diagrams.net" modified="2022-10-17T14:57:35.689Z" agent="5.0 (Windows NT 10.0; Win64; x64) AppleWebKit/537.36 (KHTML, like Gecko) Chrome/106.0.0.0 Safari/537.36" etag="Jc-DiHRD_uVO3j7d4eOQ" version="20.4.0" type="github">
  <diagram id="ppPR13k9YVrVqsrKeFTa" name="ページ1">
    <mxGraphModel dx="1422" dy="1866" grid="1" gridSize="10" guides="1" tooltips="1" connect="1" arrows="1" fold="1" page="1" pageScale="1" pageWidth="827" pageHeight="1169" math="0" shadow="0">
      <root>
        <mxCell id="0" />
        <mxCell id="1" parent="0" />
        <mxCell id="jnsSSWOkpdmFRIpMqHDn-1" value="" style="group" vertex="1" connectable="0" parent="1">
          <mxGeometry y="-10" width="360" height="290" as="geometry" />
        </mxCell>
        <mxCell id="kJNgmEBGxTDSGZDeVJwb-6" value="" style="endArrow=classic;html=1;rounded=0;" parent="jnsSSWOkpdmFRIpMqHDn-1" edge="1">
          <mxGeometry width="50" height="50" relative="1" as="geometry">
            <mxPoint x="202.5" y="145" as="sourcePoint" />
            <mxPoint x="360" y="169.16666666666666" as="targetPoint" />
          </mxGeometry>
        </mxCell>
        <mxCell id="kJNgmEBGxTDSGZDeVJwb-7" value="" style="endArrow=classic;html=1;rounded=0;" parent="jnsSSWOkpdmFRIpMqHDn-1" edge="1">
          <mxGeometry width="50" height="50" relative="1" as="geometry">
            <mxPoint x="211.5" y="193.33333333333331" as="sourcePoint" />
            <mxPoint x="360" y="265.8333333333333" as="targetPoint" />
          </mxGeometry>
        </mxCell>
        <mxCell id="kJNgmEBGxTDSGZDeVJwb-5" value="" style="endArrow=classic;html=1;rounded=0;" parent="jnsSSWOkpdmFRIpMqHDn-1" edge="1">
          <mxGeometry width="50" height="50" relative="1" as="geometry">
            <mxPoint x="180" y="96.66666666666666" as="sourcePoint" />
            <mxPoint x="360" y="72.5" as="targetPoint" />
          </mxGeometry>
        </mxCell>
        <mxCell id="kJNgmEBGxTDSGZDeVJwb-1" value="" style="shape=parallelogram;perimeter=parallelogramPerimeter;whiteSpace=wrap;html=1;fixedSize=1;rotation=90;" parent="jnsSSWOkpdmFRIpMqHDn-1" vertex="1">
          <mxGeometry x="67.5" y="72.5" width="270" height="145" as="geometry" />
        </mxCell>
        <mxCell id="PkUESs2HJuC0QbTiHBqA-1" value="" style="shape=flexArrow;endArrow=classic;html=1;rounded=0;fillColor=#ffe6cc;strokeColor=#d79b00;strokeWidth=5;" parent="jnsSSWOkpdmFRIpMqHDn-1" edge="1">
          <mxGeometry width="50" height="50" relative="1" as="geometry">
            <mxPoint y="145" as="sourcePoint" />
            <mxPoint x="211.5" y="145" as="targetPoint" />
          </mxGeometry>
        </mxCell>
      </root>
    </mxGraphModel>
  </diagram>
</mxfile>
